<mxfile host="app.diagrams.net" modified="2021-05-09T19:42:06.607Z" agent="5.0 (Windows NT 10.0; Win64; x64) AppleWebKit/537.36 (KHTML, like Gecko) Chrome/90.0.4430.93 Safari/537.36" etag="gv_t2umrzEYnxp9bLYYf" version="14.6.11" type="github">
  <diagram id="R2lEEEUBdFMjLlhIrx00" name="Page-1">
    <mxGraphModel dx="510" dy="577" grid="1" gridSize="10" guides="1" tooltips="1" connect="1" arrows="1" fold="1" page="1" pageScale="1" pageWidth="850" pageHeight="1100" math="0" shadow="0" extFonts="Permanent Marker^https://fonts.googleapis.com/css?family=Permanent+Marker">
      <root>
        <mxCell id="0" />
        <mxCell id="1" parent="0" />
        <mxCell id="R3pz4V8wiT8izE1fOQ8w-21" style="edgeStyle=orthogonalEdgeStyle;rounded=0;orthogonalLoop=1;jettySize=auto;html=1;exitX=1;exitY=0;exitDx=0;exitDy=0;" edge="1" parent="1" source="R3pz4V8wiT8izE1fOQ8w-18" target="R3pz4V8wiT8izE1fOQ8w-20">
          <mxGeometry relative="1" as="geometry" />
        </mxCell>
        <mxCell id="R3pz4V8wiT8izE1fOQ8w-22" style="edgeStyle=orthogonalEdgeStyle;rounded=0;orthogonalLoop=1;jettySize=auto;html=1;exitX=0.5;exitY=0;exitDx=0;exitDy=0;entryX=0.5;entryY=1;entryDx=0;entryDy=0;" edge="1" parent="1" source="R3pz4V8wiT8izE1fOQ8w-18" target="R3pz4V8wiT8izE1fOQ8w-19">
          <mxGeometry relative="1" as="geometry" />
        </mxCell>
        <mxCell id="R3pz4V8wiT8izE1fOQ8w-35" style="edgeStyle=orthogonalEdgeStyle;rounded=0;orthogonalLoop=1;jettySize=auto;html=1;exitX=0;exitY=1;exitDx=0;exitDy=0;entryX=0.596;entryY=0;entryDx=0;entryDy=0;entryPerimeter=0;" edge="1" parent="1" source="R3pz4V8wiT8izE1fOQ8w-18" target="R3pz4V8wiT8izE1fOQ8w-29">
          <mxGeometry relative="1" as="geometry" />
        </mxCell>
        <mxCell id="R3pz4V8wiT8izE1fOQ8w-36" style="edgeStyle=orthogonalEdgeStyle;rounded=0;orthogonalLoop=1;jettySize=auto;html=1;exitX=0;exitY=0.5;exitDx=0;exitDy=0;" edge="1" parent="1" source="R3pz4V8wiT8izE1fOQ8w-18" target="R3pz4V8wiT8izE1fOQ8w-28">
          <mxGeometry relative="1" as="geometry" />
        </mxCell>
        <mxCell id="R3pz4V8wiT8izE1fOQ8w-37" style="edgeStyle=orthogonalEdgeStyle;rounded=0;orthogonalLoop=1;jettySize=auto;html=1;exitX=0;exitY=0;exitDx=0;exitDy=0;entryX=1;entryY=1;entryDx=0;entryDy=0;" edge="1" parent="1" source="R3pz4V8wiT8izE1fOQ8w-18" target="R3pz4V8wiT8izE1fOQ8w-27">
          <mxGeometry relative="1" as="geometry" />
        </mxCell>
        <mxCell id="R3pz4V8wiT8izE1fOQ8w-39" style="edgeStyle=orthogonalEdgeStyle;rounded=0;orthogonalLoop=1;jettySize=auto;html=1;exitX=1;exitY=1;exitDx=0;exitDy=0;entryX=0;entryY=0;entryDx=0;entryDy=0;" edge="1" parent="1" source="R3pz4V8wiT8izE1fOQ8w-18" target="R3pz4V8wiT8izE1fOQ8w-38">
          <mxGeometry relative="1" as="geometry" />
        </mxCell>
        <mxCell id="R3pz4V8wiT8izE1fOQ8w-18" value="PATIENT" style="whiteSpace=wrap;html=1;align=center;" vertex="1" parent="1">
          <mxGeometry x="190" y="270" width="100" height="40" as="geometry" />
        </mxCell>
        <mxCell id="R3pz4V8wiT8izE1fOQ8w-19" value="PatientBDate" style="ellipse;whiteSpace=wrap;html=1;align=center;" vertex="1" parent="1">
          <mxGeometry x="190" y="190" width="100" height="40" as="geometry" />
        </mxCell>
        <mxCell id="R3pz4V8wiT8izE1fOQ8w-20" value="PatientAge" style="ellipse;whiteSpace=wrap;html=1;align=center;dashed=1;" vertex="1" parent="1">
          <mxGeometry x="320" y="190" width="100" height="40" as="geometry" />
        </mxCell>
        <mxCell id="R3pz4V8wiT8izE1fOQ8w-27" value="PatientID" style="ellipse;whiteSpace=wrap;html=1;align=center;fontStyle=4;" vertex="1" parent="1">
          <mxGeometry x="50" y="190" width="100" height="40" as="geometry" />
        </mxCell>
        <mxCell id="R3pz4V8wiT8izE1fOQ8w-28" value="PatientGender" style="ellipse;whiteSpace=wrap;html=1;align=center;" vertex="1" parent="1">
          <mxGeometry x="50" y="270" width="100" height="40" as="geometry" />
        </mxCell>
        <mxCell id="R3pz4V8wiT8izE1fOQ8w-33" style="edgeStyle=orthogonalEdgeStyle;rounded=0;orthogonalLoop=1;jettySize=auto;html=1;exitX=0;exitY=1;exitDx=0;exitDy=0;entryX=1;entryY=0;entryDx=0;entryDy=0;" edge="1" parent="1" source="R3pz4V8wiT8izE1fOQ8w-29" target="R3pz4V8wiT8izE1fOQ8w-31">
          <mxGeometry relative="1" as="geometry" />
        </mxCell>
        <mxCell id="R3pz4V8wiT8izE1fOQ8w-34" style="edgeStyle=orthogonalEdgeStyle;rounded=0;orthogonalLoop=1;jettySize=auto;html=1;exitX=1;exitY=1;exitDx=0;exitDy=0;entryX=0.5;entryY=0;entryDx=0;entryDy=0;" edge="1" parent="1" source="R3pz4V8wiT8izE1fOQ8w-29" target="R3pz4V8wiT8izE1fOQ8w-30">
          <mxGeometry relative="1" as="geometry" />
        </mxCell>
        <mxCell id="R3pz4V8wiT8izE1fOQ8w-29" value="( PatientName )" style="ellipse;whiteSpace=wrap;html=1;align=center;" vertex="1" parent="1">
          <mxGeometry x="120" y="340" width="100" height="40" as="geometry" />
        </mxCell>
        <mxCell id="R3pz4V8wiT8izE1fOQ8w-30" value="PatientLName" style="ellipse;whiteSpace=wrap;html=1;align=center;" vertex="1" parent="1">
          <mxGeometry x="160" y="410" width="100" height="40" as="geometry" />
        </mxCell>
        <mxCell id="R3pz4V8wiT8izE1fOQ8w-31" value="PatientFName" style="ellipse;whiteSpace=wrap;html=1;align=center;" vertex="1" parent="1">
          <mxGeometry x="30" y="410" width="100" height="40" as="geometry" />
        </mxCell>
        <mxCell id="R3pz4V8wiT8izE1fOQ8w-38" value="Diseases" style="ellipse;shape=doubleEllipse;margin=3;whiteSpace=wrap;html=1;align=center;" vertex="1" parent="1">
          <mxGeometry x="290" y="340" width="100" height="40" as="geometry" />
        </mxCell>
      </root>
    </mxGraphModel>
  </diagram>
</mxfile>
